<svg preserveAspectRatio="none" width="100%" height="100%" overflow="visible" style="display: block;" viewBox="0 0 40 40" fill="none" xmlns="http://www.w3.org/2000/svg">
<g id="Icon">
<path id="Vector" d="M34.5859 16.2672C34.259 16.3219 33.9672 16.5043 33.7746 16.7741C33.5821 17.044 33.5047 17.3793 33.5594 17.7062C33.6863 18.4642 33.7501 19.2315 33.75 20C33.753 23.3659 32.5159 26.615 30.275 29.1266C28.8809 27.1064 26.9206 25.5435 24.6406 24.6344C25.8653 23.6698 26.759 22.3475 27.1974 20.8514C27.6358 19.3553 27.597 17.7598 27.0866 16.2868C26.5761 14.8137 25.6194 13.5364 24.3493 12.6323C23.0792 11.7283 21.559 11.2425 20 11.2425C18.441 11.2425 16.9208 11.7283 15.6507 12.6323C14.3806 13.5364 13.4239 14.8137 12.9134 16.2868C12.403 17.7598 12.3642 19.3553 12.8026 20.8514C13.241 22.3475 14.1347 23.6698 15.3594 24.6344C13.0794 25.5435 11.1191 27.1064 9.725 29.1266C7.96675 27.1453 6.81824 24.6982 6.41757 22.0798C6.0169 19.4613 6.38113 16.7828 7.46646 14.3664C8.5518 11.9499 10.312 9.89846 12.5355 8.4586C14.759 7.01875 17.351 6.25181 20 6.25C20.7685 6.24988 21.5358 6.31364 22.2937 6.44063C22.6192 6.49198 22.9518 6.41274 23.2192 6.22014C23.4866 6.02754 23.6671 5.73716 23.7214 5.41216C23.7758 5.08716 23.6997 4.75384 23.5095 4.4847C23.3194 4.21557 23.0307 4.03238 22.7063 3.975C19.3116 3.40393 15.8233 3.92646 12.7451 5.46715C9.66676 7.00783 7.15776 9.48695 5.58029 12.5466C4.00282 15.6062 3.43852 19.0879 3.96887 22.4892C4.49922 25.8904 6.09676 29.0351 8.53085 31.4691C10.9649 33.9032 14.1096 35.5008 17.5108 36.0311C20.9121 36.5615 24.3938 35.9972 27.4534 34.4197C30.513 32.8422 32.9922 30.3332 34.5329 27.2549C36.0735 24.1767 36.5961 20.6884 36.025 17.2938C35.9703 16.9668 35.7879 16.675 35.5181 16.4824C35.2482 16.2899 34.9129 16.2125 34.5859 16.2672ZM15 18.75C15 17.7611 15.2932 16.7944 15.8427 15.9721C16.3921 15.1499 17.173 14.509 18.0866 14.1306C19.0002 13.7522 20.0055 13.6531 20.9755 13.8461C21.9454 14.039 22.8363 14.5152 23.5355 15.2145C24.2348 15.9137 24.711 16.8046 24.9039 17.7745C25.0969 18.7445 24.9978 19.7498 24.6194 20.6634C24.241 21.577 23.6001 22.3579 22.7779 22.9073C21.9556 23.4568 20.9889 23.75 20 23.75C18.6739 23.75 17.4021 23.2232 16.4645 22.2855C15.5268 21.3479 15 20.0761 15 18.75ZM11.575 30.8594C12.4793 29.4451 13.725 28.2813 15.1974 27.4751C16.6697 26.6689 18.3214 26.2463 20 26.2463C21.6786 26.2463 23.3303 26.6689 24.8026 27.4751C26.275 28.2813 27.5207 29.4451 28.425 30.8594C26.0161 32.7328 23.0516 33.7499 20 33.7499C16.9484 33.7499 13.9839 32.7328 11.575 30.8594ZM37.1344 7.13437L32.1344 12.1344C32.0183 12.2506 31.8804 12.3428 31.7287 12.4057C31.5769 12.4686 31.4143 12.501 31.25 12.501C31.0857 12.501 30.9231 12.4686 30.7713 12.4057C30.6196 12.3428 30.4817 12.2506 30.3656 12.1344L27.8656 9.63437C27.7495 9.51824 27.6574 9.38036 27.5945 9.22862C27.5317 9.07688 27.4993 8.91424 27.4993 8.75C27.4993 8.58576 27.5317 8.42312 27.5945 8.27138C27.6574 8.11964 27.7495 7.98176 27.8656 7.86563C28.1002 7.63107 28.4183 7.49931 28.75 7.49931C28.9142 7.49931 29.0769 7.53166 29.2286 7.59451C29.3804 7.65736 29.5182 7.74949 29.6344 7.86563L31.25 9.48281L35.3656 5.36562C35.4818 5.24949 35.6196 5.15736 35.7714 5.09451C35.9231 5.03166 36.0858 4.9993 36.25 4.9993C36.4142 4.9993 36.5769 5.03166 36.7286 5.09451C36.8804 5.15736 37.0182 5.24949 37.1344 5.36562C37.2505 5.48176 37.3426 5.61964 37.4055 5.77138C37.4683 5.92312 37.5007 6.08576 37.5007 6.25C37.5007 6.41424 37.4683 6.57688 37.4055 6.72862C37.3426 6.88036 37.2505 7.01824 37.1344 7.13437Z" fill="var(--fill-0, #DBBD6B)"/>
</g>
</svg>
