<svg preserveAspectRatio="none" width="100%" height="100%" overflow="visible" style="display: block;" viewBox="0 0 40 40" fill="none" xmlns="http://www.w3.org/2000/svg">
<g id="UserSquare">
<path id="Vector" d="M32.5 5H7.5C6.83696 5 6.20107 5.26339 5.73223 5.73223C5.26339 6.20107 5 6.83696 5 7.5V32.5C5 33.163 5.26339 33.7989 5.73223 34.2678C6.20107 34.7366 6.83696 35 7.5 35H32.5C33.163 35 33.7989 34.7366 34.2678 34.2678C34.7366 33.7989 35 33.163 35 32.5V7.5C35 6.83696 34.7366 6.20107 34.2678 5.73223C33.7989 5.26339 33.163 5 32.5 5ZM15 18.75C15 17.7611 15.2932 16.7944 15.8427 15.9721C16.3921 15.1499 17.173 14.509 18.0866 14.1306C19.0002 13.7522 20.0055 13.6531 20.9755 13.8461C21.9454 14.039 22.8363 14.5152 23.5355 15.2145C24.2348 15.9137 24.711 16.8046 24.9039 17.7745C25.0969 18.7445 24.9978 19.7498 24.6194 20.6634C24.241 21.577 23.6001 22.3579 22.7779 22.9073C21.9556 23.4568 20.9889 23.75 20 23.75C18.6739 23.75 17.4021 23.2232 16.4645 22.2855C15.5268 21.3479 15 20.0761 15 18.75ZM10.7297 32.5C11.3693 30.9252 12.3977 29.5383 13.7188 28.4687C15.4974 27.033 17.7142 26.2499 20 26.2499C22.2858 26.2499 24.5026 27.033 26.2812 28.4687C27.6023 29.5383 28.6307 30.9252 29.2703 32.5H10.7297ZM32.5 32.5H31.9266C31.3708 30.7307 30.4278 29.1075 29.1661 27.7483C27.9045 26.3891 26.3559 25.328 24.6328 24.6422C25.8595 23.6787 26.7552 22.3567 27.1953 20.8602C27.6354 19.3638 27.598 17.7673 27.0882 16.2932C26.5785 14.819 25.6218 13.5404 24.3513 12.6354C23.0808 11.7305 21.5598 11.2441 20 11.2441C18.4402 11.2441 16.9192 11.7305 15.6487 12.6354C14.3782 13.5404 13.4215 14.819 12.9118 16.2932C12.402 17.7673 12.3646 19.3638 12.8047 20.8602C13.2448 22.3567 14.1405 23.6787 15.3672 24.6422C13.6441 25.328 12.0955 26.3891 10.8339 27.7483C9.57222 29.1075 8.62923 30.7307 8.07344 32.5H7.5V7.5H32.5V32.5Z" fill="var(--fill-0, #DBBD6B)"/>
</g>
</svg>
