<svg preserveAspectRatio="none" width="100%" height="100%" overflow="visible" style="display: block;" viewBox="0 0 40 40" fill="none" xmlns="http://www.w3.org/2000/svg">
<g id="badge-euro">
<path id="Vector" d="M11.6654 20H19.9987M24.9987 15.6667C24.1129 14.6311 22.931 13.8918 21.6122 13.5484C20.2935 13.2051 18.9011 13.2741 17.6228 13.7462C16.3444 14.2184 15.2414 15.0709 14.4624 16.1891C13.6834 17.3072 13.2658 18.6372 13.2658 20C13.2658 21.3628 13.6834 22.6928 14.4624 23.8109C15.2414 24.9291 16.3444 25.7816 17.6228 26.2538C18.9011 26.7259 20.2935 26.7949 21.6122 26.4516C22.931 26.1082 24.1129 25.3689 24.9987 24.3333M6.41536 14.3668C6.1721 13.271 6.20945 12.1316 6.52396 11.0541C6.83846 9.97656 7.41994 8.9959 8.21447 8.20303C9.00901 7.41016 9.99088 6.83074 11.069 6.51849C12.1472 6.20624 13.2867 6.17127 14.382 6.41683C14.9849 5.474 15.8154 4.69809 16.7969 4.16064C17.7785 3.62318 18.8796 3.34147 19.9987 3.34147C21.1178 3.34147 22.2189 3.62318 23.2004 4.16064C24.182 4.69809 25.0125 5.474 25.6154 6.41683C26.7123 6.1702 27.8538 6.20501 28.9337 6.51802C30.0136 6.83103 30.9967 7.41206 31.7918 8.20709C32.5868 9.00211 33.1678 9.98528 33.4808 11.0652C33.7938 12.145 33.8287 13.2865 33.582 14.3835C34.5249 14.9863 35.3008 15.8168 35.8382 16.7984C36.3757 17.78 36.6574 18.8811 36.6574 20.0002C36.6574 21.1193 36.3757 22.2203 35.8382 23.2019C35.3008 24.1835 34.5249 25.014 33.582 25.6168C33.8276 26.7121 33.7926 27.8517 33.4804 28.9298C33.1681 30.008 32.5887 30.9898 31.7958 31.7844C31.003 32.5789 30.0223 33.1604 28.9448 33.4749C27.8673 33.7894 26.7278 33.8268 25.632 33.5835C25.03 34.5299 24.1988 35.3092 23.2156 35.849C22.2323 36.3889 21.1287 36.6719 20.007 36.6719C18.8853 36.6719 17.7817 36.3889 16.7985 35.849C15.8152 35.3092 14.9841 34.5299 14.382 33.5835C13.2867 33.8291 12.1472 33.7941 11.069 33.4818C9.99088 33.1696 9.00901 32.5902 8.21447 31.7973C7.41994 31.0044 6.83846 30.0238 6.52396 28.9463C6.20945 27.8688 6.1721 26.7293 6.41536 25.6335C5.46529 25.0322 4.68272 24.2005 4.14044 23.2155C3.59817 22.2306 3.3138 21.1245 3.3138 20.0002C3.3138 18.8758 3.59817 17.7697 4.14044 16.7848C4.68272 15.7999 5.46529 14.9681 6.41536 14.3668Z" stroke="var(--stroke-0, #DBBD6B)" stroke-width="2.5" stroke-linecap="round" stroke-linejoin="round"/>
</g>
</svg>
