<svg preserveAspectRatio="none" width="100%" height="100%" overflow="visible" style="display: block;" viewBox="0 0 40 40" fill="none" xmlns="http://www.w3.org/2000/svg">
<g id="ChartLine">
<path id="Vector" d="M36.25 32.5C36.25 32.8315 36.1183 33.1495 35.8839 33.3839C35.6495 33.6183 35.3315 33.75 35 33.75H5C4.66848 33.75 4.35054 33.6183 4.11612 33.3839C3.8817 33.1495 3.75 32.8315 3.75 32.5V7.5C3.75 7.16848 3.8817 6.85054 4.11612 6.61612C4.35054 6.3817 4.66848 6.25 5 6.25C5.33152 6.25 5.64946 6.3817 5.88388 6.61612C6.1183 6.85054 6.25 7.16848 6.25 7.5V22.2453L14.1766 15.3125C14.3923 15.1237 14.6663 15.0147 14.9528 15.0039C15.2392 14.9931 15.5207 15.0811 15.75 15.2531L24.9391 22.1453L34.1766 14.0625C34.2977 13.9426 34.442 13.8487 34.6008 13.7867C34.7595 13.7246 34.9292 13.6957 35.0995 13.7016C35.2699 13.7076 35.4372 13.7483 35.5912 13.8212C35.7452 13.8942 35.8826 13.9979 35.9951 14.126C36.1076 14.254 36.1927 14.4037 36.2452 14.5658C36.2977 14.728 36.3164 14.8991 36.3004 15.0688C36.2843 15.2385 36.2337 15.403 36.1517 15.5524C36.0697 15.7018 35.958 15.8329 35.8234 15.9375L25.8234 24.6875C25.6077 24.8763 25.3337 24.9853 25.0472 24.9961C24.7608 25.0069 24.4793 24.9189 24.25 24.7469L15.0609 17.8578L6.25 25.5672V31.25H35C35.3315 31.25 35.6495 31.3817 35.8839 31.6161C36.1183 31.8505 36.25 32.1685 36.25 32.5Z" fill="var(--fill-0, #DBBD6B)"/>
</g>
</svg>
