<svg preserveAspectRatio="none" width="100%" height="100%" overflow="visible" style="display: block;" viewBox="0 0 42 42" fill="none" xmlns="http://www.w3.org/2000/svg">
<g id="Icon">
<path id="Vector" d="M37.6786 9.57141L32.4286 4.32141C32.3067 4.19937 32.1619 4.10257 32.0026 4.03652C31.8433 3.97046 31.6725 3.93647 31.5 3.93647C31.3275 3.93647 31.1567 3.97046 30.9974 4.03652C30.8381 4.10257 30.6933 4.19937 30.5714 4.32141L14.8214 20.0714C14.6996 20.1934 14.6029 20.3382 14.5371 20.4975C14.4712 20.6568 14.4374 20.8276 14.4375 21V26.25C14.4375 26.5981 14.5758 26.9319 14.8219 27.1781C15.0681 27.4242 15.4019 27.5625 15.75 27.5625H21C21.1724 27.5626 21.3432 27.5288 21.5025 27.4629C21.6618 27.3971 21.8066 27.3004 21.9286 27.1786L37.6786 11.4286C37.8006 11.3067 37.8974 11.1619 37.9635 11.0026C38.0295 10.8433 38.0635 10.6725 38.0635 10.5C38.0635 10.3275 38.0295 10.1567 37.9635 9.99739C37.8974 9.83806 37.8006 9.6933 37.6786 9.57141ZM20.457 24.9375H17.0625V21.543L27.5625 11.043L30.957 14.4375L20.457 24.9375ZM32.8125 12.582L29.418 9.1875L31.5 7.10555L34.8945 10.5L32.8125 12.582ZM36.75 21V34.125C36.75 34.8212 36.4734 35.4889 35.9812 35.9812C35.4889 36.4734 34.8212 36.75 34.125 36.75H7.875C7.17881 36.75 6.51113 36.4734 6.01884 35.9812C5.52656 35.4889 5.25 34.8212 5.25 34.125V7.875C5.25 7.17881 5.52656 6.51113 6.01884 6.01884C6.51113 5.52656 7.17881 5.25 7.875 5.25H21C21.3481 5.25 21.6819 5.38828 21.9281 5.63442C22.1742 5.88056 22.3125 6.2144 22.3125 6.5625C22.3125 6.9106 22.1742 7.24444 21.9281 7.49058C21.6819 7.73672 21.3481 7.875 21 7.875H7.875V34.125H34.125V21C34.125 20.6519 34.2633 20.3181 34.5094 20.0719C34.7556 19.8258 35.0894 19.6875 35.4375 19.6875C35.7856 19.6875 36.1194 19.8258 36.3656 20.0719C36.6117 20.3181 36.75 20.6519 36.75 21Z" fill="var(--fill-0, #DBBD6B)"/>
</g>
</svg>
