<svg preserveAspectRatio="none" width="100%" height="100%" overflow="visible" style="display: block;" viewBox="0 0 42 42" fill="none" xmlns="http://www.w3.org/2000/svg">
<g id="Icon">
<path id="Vector" d="M41.7211 17.704L37.5342 9.32695C37.38 9.01862 37.1665 8.7437 36.906 8.51788C36.6455 8.29205 36.3431 8.11976 36.016 8.01083C35.6889 7.9019 35.3435 7.85847 34.9997 7.88302C34.6558 7.90757 34.3201 7.99962 34.0118 8.15391L29.9316 10.1932L21.3363 7.9193C21.1158 7.8619 20.8842 7.8619 20.6637 7.9193L12.0684 10.1932L7.9882 8.15391C7.6799 7.99962 7.34422 7.90757 7.00034 7.88302C6.65646 7.85847 6.31111 7.9019 5.98402 8.01083C5.65692 8.11976 5.35449 8.29205 5.09399 8.51788C4.83349 8.7437 4.62002 9.01862 4.46578 9.32695L0.278906 17.7023C0.124615 18.0106 0.032567 18.3463 0.00801744 18.6902C-0.0165321 19.0341 0.0268982 19.3794 0.135828 19.7065C0.244758 20.0336 0.417054 20.3361 0.642877 20.5966C0.868699 20.8571 1.14362 21.0705 1.45195 21.2248L5.88164 23.4413L14.9855 29.943C15.1196 30.0385 15.2704 30.108 15.4301 30.1481L25.9301 32.7731C26.15 32.8283 26.3804 32.8255 26.5989 32.7651C26.8174 32.7048 27.0166 32.5888 27.177 32.4286L36.2119 23.392L40.5464 21.2248C41.1687 20.9133 41.6418 20.3674 41.8618 19.7072C42.0817 19.047 42.0305 18.3265 41.7195 17.704H41.7211ZM32.7157 23.1787L27.0703 18.6572C26.8174 18.4546 26.4985 18.3528 26.175 18.3713C25.8515 18.3898 25.5463 18.5272 25.3181 18.7573C22.3962 21.7005 19.1395 21.3281 17.0625 20.0156L24.1566 13.125H29.3754L33.8395 22.0516L32.7157 23.1787ZM6.81352 10.5L10.1719 12.1767L5.9768 20.5521L2.625 18.877L6.81352 10.5ZM25.8448 30.0448L16.3111 27.6626L8.23922 21.8974L12.833 12.7099L21 10.5459L22.6078 10.9709L15.225 18.1371L15.2119 18.1519C14.934 18.4298 14.722 18.7666 14.5916 19.1373C14.4613 19.5081 14.4158 19.9034 14.4587 20.2941C14.5015 20.6848 14.6315 21.0609 14.8391 21.3946C15.0467 21.7283 15.3266 22.0112 15.6581 22.2223C19.0313 24.3764 23.1016 24.027 26.3074 21.402L30.8437 25.0458L25.8448 30.0448ZM36.0166 20.5505L31.8298 12.1833L35.1865 10.5L39.375 18.877L36.0166 20.5505ZM21.6202 35.7541C21.5492 36.0378 21.3856 36.2897 21.1553 36.4698C20.925 36.6499 20.6411 36.748 20.3487 36.7484C20.2408 36.7482 20.1334 36.735 20.0288 36.709L13.1923 34.9995C13.0324 34.96 12.8815 34.8904 12.7477 34.7944L8.42461 31.7067C8.1588 31.498 7.98373 31.1948 7.93587 30.8603C7.88801 30.5257 7.97104 30.1856 8.16767 29.9107C8.36431 29.6359 8.65938 29.4475 8.99146 29.3847C9.32354 29.322 9.66703 29.3897 9.95039 29.5739L14.07 32.5172L20.6719 34.1644C21.0095 34.2488 21.2998 34.4639 21.4788 34.7624C21.6579 35.0608 21.7111 35.4181 21.6267 35.7558L21.6202 35.7541Z" fill="var(--fill-0, #DBBD6B)"/>
</g>
</svg>
