<svg preserveAspectRatio="none" width="100%" height="100%" overflow="visible" style="display: block;" viewBox="0 0 42 42" fill="none" xmlns="http://www.w3.org/2000/svg">
<g id="Icon">
<path id="Vector" d="M38.0625 34.125C38.0625 34.4731 37.9242 34.8069 37.6781 35.0531C37.4319 35.2992 37.0981 35.4375 36.75 35.4375H5.25C4.9019 35.4375 4.56806 35.2992 4.32192 35.0531C4.07578 34.8069 3.9375 34.4731 3.9375 34.125V7.875C3.9375 7.5269 4.07578 7.19306 4.32192 6.94692C4.56806 6.70078 4.9019 6.5625 5.25 6.5625C5.5981 6.5625 5.93194 6.70078 6.17808 6.94692C6.42422 7.19306 6.5625 7.5269 6.5625 7.875V25.707L14.8214 17.4464C14.9433 17.3244 15.0881 17.2276 15.2474 17.1615C15.4067 17.0955 15.5775 17.0615 15.75 17.0615C15.9225 17.0615 16.0933 17.0955 16.2526 17.1615C16.4119 17.2276 16.5567 17.3244 16.6786 17.4464L21 21.7695L29.6445 13.125H26.25C25.9019 13.125 25.5681 12.9867 25.3219 12.7406C25.0758 12.4944 24.9375 12.1606 24.9375 11.8125C24.9375 11.4644 25.0758 11.1306 25.3219 10.8844C25.5681 10.6383 25.9019 10.5 26.25 10.5H32.8125C33.1606 10.5 33.4944 10.6383 33.7406 10.8844C33.9867 11.1306 34.125 11.4644 34.125 11.8125V18.375C34.125 18.7231 33.9867 19.0569 33.7406 19.3031C33.4944 19.5492 33.1606 19.6875 32.8125 19.6875C32.4644 19.6875 32.1306 19.5492 31.8844 19.3031C31.6383 19.0569 31.5 18.7231 31.5 18.375V14.9805L21.9286 24.5536C21.8067 24.6756 21.6619 24.7724 21.5026 24.8385C21.3433 24.9045 21.1725 24.9385 21 24.9385C20.8275 24.9385 20.6567 24.9045 20.4974 24.8385C20.3381 24.7724 20.1933 24.6756 20.0714 24.5536L15.75 20.2305L6.5625 29.418V32.8125H36.75C37.0981 32.8125 37.4319 32.9508 37.6781 33.1969C37.9242 33.4431 38.0625 33.7769 38.0625 34.125Z" fill="var(--fill-0, #DBBD6B)"/>
</g>
</svg>
