<svg preserveAspectRatio="none" width="100%" height="100%" overflow="visible" style="display: block;" viewBox="0 0 42 42" fill="none" xmlns="http://www.w3.org/2000/svg">
<g id="Icon">
<path id="Vector" d="M34.125 15.75C34.8212 15.75 35.4889 15.4734 35.9812 14.9812C36.4734 14.4889 36.75 13.8212 36.75 13.125V7.875C36.75 7.17881 36.4734 6.51113 35.9812 6.01884C35.4889 5.52656 34.8212 5.25 34.125 5.25H28.875C28.1788 5.25 27.5111 5.52656 27.0188 6.01884C26.5266 6.51113 26.25 7.17881 26.25 7.875V9.1875H15.75V7.875C15.75 7.17881 15.4734 6.51113 14.9812 6.01884C14.4889 5.52656 13.8212 5.25 13.125 5.25H7.875C7.17881 5.25 6.51113 5.52656 6.01884 6.01884C5.52656 6.51113 5.25 7.17881 5.25 7.875V13.125C5.25 13.8212 5.52656 14.4889 6.01884 14.9812C6.51113 15.4734 7.17881 15.75 7.875 15.75H9.1875V26.25H7.875C7.17881 26.25 6.51113 26.5266 6.01884 27.0188C5.52656 27.5111 5.25 28.1788 5.25 28.875V34.125C5.25 34.8212 5.52656 35.4889 6.01884 35.9812C6.51113 36.4734 7.17881 36.75 7.875 36.75H13.125C13.8212 36.75 14.4889 36.4734 14.9812 35.9812C15.4734 35.4889 15.75 34.8212 15.75 34.125V32.8125H26.25V34.125C26.25 34.8212 26.5266 35.4889 27.0188 35.9812C27.5111 36.4734 28.1788 36.75 28.875 36.75H34.125C34.8212 36.75 35.4889 36.4734 35.9812 35.9812C36.4734 35.4889 36.75 34.8212 36.75 34.125V28.875C36.75 28.1788 36.4734 27.5111 35.9812 27.0188C35.4889 26.5266 34.8212 26.25 34.125 26.25H32.8125V15.75H34.125ZM28.875 7.875H34.125V13.125H28.875V7.875ZM7.875 7.875H13.125V10.4836C13.1228 10.4944 13.1228 10.5056 13.125 10.5164V13.125H7.875V7.875ZM13.125 34.125H7.875V28.875H13.125V31.4836C13.1228 31.4944 13.1228 31.5056 13.125 31.5164V34.125ZM34.125 34.125H28.875V28.875H34.125V34.125ZM30.1875 26.25H28.875C28.1788 26.25 27.5111 26.5266 27.0188 27.0188C26.5266 27.5111 26.25 28.1788 26.25 28.875V30.1875H15.75V28.875C15.75 28.1788 15.4734 27.5111 14.9812 27.0188C14.4889 26.5266 13.8212 26.25 13.125 26.25H11.8125V15.75H13.125C13.8212 15.75 14.4889 15.4734 14.9812 14.9812C15.4734 14.4889 15.75 13.8212 15.75 13.125V11.8125H26.25V13.125C26.25 13.8212 26.5266 14.4889 27.0188 14.9812C27.5111 15.4734 28.1788 15.75 28.875 15.75H30.1875V26.25Z" fill="var(--fill-0, #DBBD6B)"/>
</g>
</svg>
